<?xml version="1.0" standalone="no"?>
<!DOCTYPE svg PUBLIC "-//W3C//DTD SVG 20010904//EN"
 "http://www.w3.org/TR/2001/REC-SVG-20010904/DTD/svg10.dtd">
<svg version="1.0" xmlns="http://www.w3.org/2000/svg"
 width="452.000000pt" height="452.000000pt" viewBox="0 0 452.000000 452.000000"
 preserveAspectRatio="xMidYMid meet">

<g transform="translate(0.000000,452.000000) scale(0.100000,-0.100000)"
fill="#000000" stroke="none">
<path d="M1595 3874 c-307 -48 -612 -162 -800 -300 -82 -60 -136 -139 -211
-305 -222 -495 -374 -1137 -400 -1685 l-7 -151 29 -54 c41 -76 183 -216 287
-284 208 -134 510 -243 764 -274 123 -15 124 -15 254 166 61 85 117 157 124
159 7 3 61 -4 121 -15 168 -31 292 -42 504 -42 212 0 336 11 504 42 60 11 114
18 121 15 7 -2 63 -74 124 -159 130 -181 131 -181 254 -166 264 32 582 149
787 289 99 68 215 186 262 265 l29 50 -6 154 c-21 532 -170 1167 -390 1667
-110 251 -168 315 -388 429 -187 97 -405 164 -648 200 -162 24 -174 17 -219
-133 -22 -74 -23 -74 -54 -68 -215 38 -537 38 -753 0 -30 -6 -32 -4 -43 37
-27 100 -51 149 -80 164 -34 17 -45 17 -165 -1z m65 -198 c0 -8 2 -20 5 -28 4
-10 -20 -20 -87 -37 -124 -31 -280 -90 -403 -152 -131 -67 -178 -99 -189 -130
-19 -54 22 -119 75 -119 14 0 87 32 162 70 298 155 667 241 1037 241 370 0
739 -86 1037 -241 75 -38 148 -70 162 -70 53 0 94 65 75 119 -23 65 -350 221
-592 282 -67 17 -91 27 -87 37 3 8 5 21 5 29 0 19 52 14 219 -23 204 -46 368
-111 501 -199 56 -37 78 -60 116 -121 217 -348 443 -1224 455 -1761 l3 -102
-44 -56 c-146 -189 -482 -352 -846 -410 l-40 -6 -76 103 -76 103 77 28 c182
67 432 205 486 269 34 40 33 82 -4 119 -44 43 -71 38 -180 -35 -53 -36 -143
-87 -201 -115 -111 -53 -305 -121 -343 -121 -13 0 -27 -4 -32 -9 -14 -13 -152
-40 -295 -56 -146 -18 -451 -20 -603 -4 -58 6 -157 21 -219 35 -62 13 -133 28
-158 33 -136 28 -384 138 -531 237 -109 73 -136 78 -180 35 -37 -37 -38 -79
-4 -119 53 -63 260 -179 455 -256 l107 -42 -75 -102 -75 -103 -46 7 c-76 10
-250 54 -341 86 -203 72 -408 204 -499 322 l-45 57 3 102 c12 537 238 1413
455 1761 38 61 60 84 116 121 137 91 334 167 550 210 138 28 170 30 170 11z"/>
<path d="M1551 2600 c-110 -40 -181 -109 -240 -230 -33 -69 -36 -84 -39 -180
-3 -88 0 -116 18 -169 42 -125 122 -220 229 -270 48 -22 69 -26 151 -26 85 0
102 3 160 31 169 80 273 288 243 484 -23 148 -117 281 -241 342 -84 42 -198
49 -281 18z m229 -194 c135 -89 156 -318 42 -440 -117 -124 -315 -59 -363 118
-16 59 -6 173 19 221 64 124 199 169 302 101z"/>
<path d="M2743 2606 c-152 -50 -269 -195 -296 -366 -30 -196 74 -404 243 -484
58 -28 75 -31 160 -31 82 0 103 4 151 26 106 50 187 145 230 270 18 54 20 80
17 170 -4 97 -8 113 -41 183 -44 93 -118 170 -199 210 -70 34 -196 45 -265 22z
m175 -182 c87 -36 143 -121 150 -229 8 -124 -37 -220 -127 -268 -222 -122
-423 208 -258 424 60 79 153 108 235 73z"/>
</g>
</svg>
